<svg id="Layer_1" data-name="Layer 1" xmlns="http://www.w3.org/2000/svg" viewBox="0 0 237.55 288"><defs><style>.cls-1{fill:#fff;}</style></defs><path class="cls-1" d="M7.77,247.41H23.58v7.19H7.77v16.62H0V229.93H27.51v7.19H7.77Zm0-27.8H0V178.32H15.39a15.22,15.22,0,0,1,7.32,1.74,12.7,12.7,0,0,1,5.05,4.83,13.46,13.46,0,0,1,1.74,7A13.62,13.62,0,0,1,27.76,199a12.68,12.68,0,0,1-5.05,4.85,15.22,15.22,0,0,1-7.32,1.74H7.78Zm0-20.76h7.13c3.89,0,7.24-2.32,7.24-7,0-4-3.35-6.76-7.24-6.76H7.78ZM82.27,245a9.45,9.45,0,0,1,4.56,1.12,10.35,10.35,0,0,1,3.47,3.35l5.8-3.38a15.05,15.05,0,0,0-5.4-5.56,17.53,17.53,0,0,0-8.37-1.93,18.87,18.87,0,0,0-9,2.11,15.74,15.74,0,0,0-6.19,5.86,17.43,17.43,0,0,0,0,17.06,15.55,15.55,0,0,0,6.22,5.89,18.92,18.92,0,0,0,9,2.12,17.07,17.07,0,0,0,8.31-2,14.11,14.11,0,0,0,5.46-5.58l-5.8-3.39a11,11,0,0,1-3.47,3.36,10.21,10.21,0,0,1-11.59-1.63,11.12,11.12,0,0,1,0-14.68A9.54,9.54,0,0,1,82.27,245Zm76.31,1.57a19.63,19.63,0,0,1,0,17.06,15.45,15.45,0,0,1-6.13,5.89,19.53,19.53,0,0,1-17.7,0,14.75,14.75,0,0,1-5.88-5.89,16.59,16.59,0,0,1-2.2-8.54,16.35,16.35,0,0,1,2-8.52,15.51,15.51,0,0,1,6.13-5.86,19.61,19.61,0,0,1,17.7,0A15.58,15.58,0,0,1,158.58,246.58Zm-5.41,8.52a10,10,0,0,0-2.72-7.31,9.88,9.88,0,0,0-13.74,0,11.31,11.31,0,0,0,0,14.62,9.9,9.9,0,0,0,13.74,0A10,10,0,0,0,153.17,255.1Zm18.76-11.42V239h-7.18v32.25h7.55V255.58c0-9.93,10.46-9.9,11.11-9.78v-7.19C179.05,238.61,174.11,240.3,171.93,243.68Zm-44.3-24.07V201.13c0-6.46-3.19-14-12.63-14-5.61,0-8.15,2.43-8.15,2.43V178.32H99.07v41.29h7.78V199.2a6.55,6.55,0,0,1,6.65-5.71c2.46,0,6.58,1.37,6.58,7.76v18.36ZM56,187.36H63.8v32.25H56v-2.86A16,16,0,0,1,46.51,220c-10.15,0-16.38-8.12-16.38-16.55,0-8.76,6.23-16.49,16.38-16.49,5.45,0,7.28,1.13,9.51,2.8Zm.86,16.12a9.74,9.74,0,0,0-9.6-10.08,10.08,10.08,0,0,0-9.75,10.08c0,5.65,3.79,10.09,9.75,10.09C52.68,213.57,56.88,209.13,56.88,203.48ZM53,239h7.78v32.25H53v-2.86a16,16,0,0,1-9.52,3.29c-10.15,0-16.37-8.12-16.37-16.55,0-8.76,6.22-16.49,16.37-16.49,5.46,0,7.28,1.13,9.52,2.79Zm.86,16.13c0-5.65-4.2-10.09-9.6-10.09a10.08,10.08,0,0,0-9.75,10.09c0,5.64,3.79,10.08,9.75,10.08A9.74,9.74,0,0,0,53.87,255.1Zm175-16.13H227v.75h1.8v3.73h.73v-3.73h1.8V239h-2.53Zm8,0-1.62,1.68L233.57,239h-.72v4.48h.72V240l1.63,1.67,1.62-1.67v3.42h.73V239ZM117.58,264.91c-4.93,0-4.59-4.82-4.59-4.82V246.4h10V239H113v-9h-7.77v9H99v7.43h6.27v14.38c0,8.13,6.61,10.87,12,10.87a15.75,15.75,0,0,0,9.21-3.19L123,262.39A8.21,8.21,0,0,1,117.58,264.91ZM73.64,209.16c0,8.14,6.61,10.88,12,10.88a15.75,15.75,0,0,0,9.21-3.19l-3.44-6.08A8.21,8.21,0,0,1,86,213.29c-4.93,0-4.59-4.81-4.59-4.81V194.79h10v-7.43h-10v-9H73.64v9H67.37v7.43h6.27v14.37Zm132.87,50.08-1.5,3.51L195,239H187l14.23,32.66-7,16.37H202l21.24-49h-8ZM.08,149.27V102h0a1.67,1.67,0,0,1,.48-1.2L34,67.37a1.68,1.68,0,0,1,1.21-.49H77a15,15,0,1,0,0-30H1.78a1.7,1.7,0,0,1-1.7-1.7V1.7A1.7,1.7,0,0,1,1.78,0H77L78,0a51.84,51.84,0,0,1,0,103.66c-.31,0-.63,0-.95,0H36.92v45.56a1.7,1.7,0,0,1-.85,1.47l-16.72,9.65a1.69,1.69,0,0,1-1.7,0L.93,150.74A1.7,1.7,0,0,1,.08,149.27ZM3.48,33.43h30V3.4h-30Zm30,97.52-15-8.67L3.48,131v17.34l15,8.67,15-8.67ZM3.48,127l14.17-8.18a1.72,1.72,0,0,1,1.7,0L33.52,127V103.71h-30ZM77,100.3a15,15,0,0,0,0-30h0a15,15,0,0,0,0,30ZM77,3.4h0a15,15,0,1,0,15,15A15,15,0,0,0,77,3.4Zm-40.09,30H66.37a18.38,18.38,0,0,1,0-30H36.92ZM84.73,68.57a18.4,18.4,0,0,1,5,30,48.45,48.45,0,0,0,0-93.5,18.4,18.4,0,0,1-5,30,18.41,18.41,0,0,1,0,33.43Zm-18.36,1.7H36.92v30H66.37a18.38,18.38,0,0,1,0-30Zm-60.48,30H33.52V72.68Z"/></svg>