<svg id="Layer_1" data-name="Layer 1" xmlns="http://www.w3.org/2000/svg" viewBox="0 0 693.4 144"><defs><style>.cls-1{fill:#fff;}</style></defs><path id="Artwork_2" data-name="Artwork 2" class="cls-1" d="M352.32,42.39V57.67h23.47V68.34H352.32V93H340.79V31.73h40.83V42.39ZM183.7,41.48a20.08,20.08,0,0,1,2.57,10.42,20.25,20.25,0,0,1-2.57,10.46,18.93,18.93,0,0,1-7.5,7.21,22.64,22.64,0,0,1-10.87,2.58H154V93H142.48V31.72h22.85a22.64,22.64,0,0,1,10.87,2.59,19,19,0,0,1,7.5,7.17M164.61,62.21c5.78,0,10.75-3.45,10.75-10.41,0-6-5-10-10.75-10H154V62.21h10.58m285,28.3A28.11,28.11,0,0,0,463,93.64a25.36,25.36,0,0,0,12.33-2.91,21.13,21.13,0,0,0,8.11-8.29l-8.61-5a16.33,16.33,0,0,1-5.15,5A15.1,15.1,0,0,1,452.47,80q-4.08-4.08-4.08-10.89t4.12-10.89a15,15,0,0,1,17.17-2.42,15.53,15.53,0,0,1,5.15,5l8.61-5a22.36,22.36,0,0,0-8-8.24A25.77,25.77,0,0,0,463,44.61a28,28,0,0,0-13.4,3.13,23.27,23.27,0,0,0-9.19,8.7,24.22,24.22,0,0,0-3.32,12.64,24.47,24.47,0,0,0,3.32,12.69,23.07,23.07,0,0,0,9.23,8.74M576.18,56.44c2.18,3.71,2.9,7.92,2.9,12.64s-.72,9-2.9,12.69a23,23,0,0,1-9.1,8.74,29.13,29.13,0,0,1-26.27,0,21.89,21.89,0,0,1-8.72-8.74,24.64,24.64,0,0,1-3.28-12.69c0-4.72.72-8.93,2.9-12.64a23.1,23.1,0,0,1,9.1-8.7,29.13,29.13,0,0,1,26.27,0,23.17,23.17,0,0,1,9.1,8.7M564.12,79.93q4-4.12,4-10.85t-4-10.85a14.69,14.69,0,0,0-20.4,0,15,15,0,0,0-4,10.85,15,15,0,0,0,4,10.85,14.69,14.69,0,0,0,20.4,0M613,44.61c-6.47,0-13.81,2.51-17,7.53v-7H585.33V93h11.21V69.8c0-14.74,15.54-14.7,16.5-14.52V44.61m-281.1,21c0-9.58-4.74-20.72-18.75-20.72-8.32,0-12.09,3.6-12.09,3.6V31.72H289.54V93H301.1V62.72c0-2.67,3.09-8.47,9.87-8.47,3.64,0,9.77,2,9.77,11.52V93h11.2V65.58M237.19,45.14V93H225.65V88.77a23.73,23.73,0,0,1-14.13,4.88c-15.07,0-24.31-12.05-24.31-24.57,0-13,9.24-24.47,24.31-24.47,8.1,0,10.81,1.67,14.13,4.14V45.14ZM212.67,84.05c8,0,14.25-6.59,14.25-15s-6.23-15-14.25-15-14.48,7.08-14.48,15c0,8.38,5.63,15,14.48,15M431,45.14V93H419.47V88.77a23.73,23.73,0,0,1-14.12,4.88C390.28,93.65,381,81.6,381,69.08c0-13,9.24-24.47,24.31-24.47,8.09,0,10.8,1.67,14.12,4.14V45.14ZM406.5,84.05c8,0,14.25-6.59,14.25-15s-6.23-15-14.25-15S392,61.19,392,69.08c0,8.38,5.63,15,14.48,15M684.24,45.14H677.8v1.11h2.68v5.53h1.07V46.25h2.69Zm8.09,0h0l-2.42,2.49-2.41-2.49h-1.08v6.64h1.08V46.71l2.41,2.49,2.42-2.49v5.07h1.07V45.14Zm-169,34.76c-2.18,2-4.93,3.74-8,3.74-7.31,0-6.8-7.15-6.8-7.15V56.17h14.79v-11H508.52V31.72H497V45.14h-9.3v11H497V77.51c0,12.08,9.81,16.14,17.76,16.14a23.42,23.42,0,0,0,13.67-4.73Zm-245.18,0c-2.18,2-4.92,3.74-8,3.74-7.31,0-6.8-7.15-6.8-7.15V56.17h14.8v-11h-14.8V31.72H251.79V45.14h-9.3v11h9.3V77.51c0,12.08,9.81,16.14,17.76,16.14a23.47,23.47,0,0,0,13.68-4.73ZM660.2,45.14,647.33,75.22l-2.23,5.21L630.27,45.14H618.33l21.12,48.49-10.39,24.29h11.55l31.53-72.78ZM115.45,46.48A46.53,46.53,0,0,1,69,93H33v23.56h0v17.31a1.51,1.51,0,0,1-.76,1.31l-15,8.66a1.57,1.57,0,0,1-.76.2,1.53,1.53,0,0,1-.75-.2l-15-8.66A1.51,1.51,0,0,1,0,133.83V91.45H0a1.5,1.5,0,0,1,.43-1.07l30-30A1.5,1.5,0,0,1,31.49,60H69A13.48,13.48,0,0,0,69,33H1.51A1.52,1.52,0,0,1,0,31.49v-30A1.52,1.52,0,0,1,1.51,0H69A46.53,46.53,0,0,1,115.45,46.48ZM3,30H30V3H3ZM69,3a13.48,13.48,0,0,0,0,27h0A13.48,13.48,0,0,0,69,3Zm-9.5,27A16.46,16.46,0,0,1,59.47,3H33V30Zm23,46.48A13.48,13.48,0,1,0,69,89.94,13.49,13.49,0,0,0,82.44,76.46ZM3,113.9l12.72-7.34a1.51,1.51,0,0,1,1.51,0L30,113.9V93H3Zm2.14-24H30V65.13ZM30,117.4,16.5,109.62,3,117.4V133l13.47,7.78L30,133ZM59.47,89.94a16.47,16.47,0,0,1,0-27H33v27Zm53-43.46A43.53,43.53,0,0,0,80.3,4.53a16.46,16.46,0,0,1-4.47,27,16.47,16.47,0,0,1,0,30,16.46,16.46,0,0,1,4.47,27A43.53,43.53,0,0,0,112.42,46.48Z"/></svg>